<mxfile host="Electron" modified="2023-11-21T12:21:59.728Z" agent="Mozilla/5.0 (Macintosh; Intel Mac OS X 10_15_7) AppleWebKit/537.36 (KHTML, like Gecko) draw.io/22.1.2 Chrome/114.0.5735.289 Electron/25.9.4 Safari/537.36" etag="KCUszgpkOzn7GaG9oFen" version="22.1.2" type="device">
  <diagram name="Seite-1" id="Lucc0Xq7bXYCGMvDPe7m">
    <mxGraphModel dx="928" dy="833" grid="1" gridSize="10" guides="1" tooltips="1" connect="1" arrows="1" fold="1" page="1" pageScale="1" pageWidth="827" pageHeight="1169" math="0" shadow="0">
      <root>
        <mxCell id="0" />
        <mxCell id="1" parent="0" />
        <mxCell id="9NRjc9PGSiauFWdXZ-fw-5" value="" style="group" vertex="1" connectable="0" parent="1">
          <mxGeometry x="50" y="30" width="580" height="70" as="geometry" />
        </mxCell>
        <mxCell id="9NRjc9PGSiauFWdXZ-fw-1" value="Store Version" style="rounded=0;whiteSpace=wrap;html=1;fillColor=#ffe6cc;strokeColor=#d79b00;" vertex="1" parent="9NRjc9PGSiauFWdXZ-fw-5">
          <mxGeometry x="20" y="30" width="90" height="40" as="geometry" />
        </mxCell>
        <mxCell id="9NRjc9PGSiauFWdXZ-fw-2" value="Key: SlotID" style="rounded=0;whiteSpace=wrap;html=1;fillColor=#d5e8d4;strokeColor=#82b366;" vertex="1" parent="9NRjc9PGSiauFWdXZ-fw-5">
          <mxGeometry x="120" y="30" width="90" height="40" as="geometry" />
        </mxCell>
        <mxCell id="9NRjc9PGSiauFWdXZ-fw-3" value="Value: domainKey&lt;br&gt;(attended: encrypted with Unlock Key, unattended: plain)&amp;nbsp;" style="rounded=0;whiteSpace=wrap;html=1;fillColor=#f8cecc;strokeColor=#b85450;" vertex="1" parent="9NRjc9PGSiauFWdXZ-fw-5">
          <mxGeometry x="220" y="30" width="360" height="40" as="geometry" />
        </mxCell>
        <mxCell id="9NRjc9PGSiauFWdXZ-fw-4" value="A) Domain Key Store (values encrypted with Device Key)" style="text;html=1;align=left;verticalAlign=middle;resizable=0;points=[];autosize=1;strokeColor=none;fillColor=none;fontSize=14;" vertex="1" parent="9NRjc9PGSiauFWdXZ-fw-5">
          <mxGeometry width="380" height="30" as="geometry" />
        </mxCell>
        <mxCell id="9NRjc9PGSiauFWdXZ-fw-9" value="" style="group" vertex="1" connectable="0" parent="1">
          <mxGeometry x="50" y="100" width="580" height="70" as="geometry" />
        </mxCell>
        <mxCell id="9NRjc9PGSiauFWdXZ-fw-10" value="Store Version" style="rounded=0;whiteSpace=wrap;html=1;fillColor=#ffe6cc;strokeColor=#d79b00;" vertex="1" parent="9NRjc9PGSiauFWdXZ-fw-9">
          <mxGeometry x="20" y="30" width="90" height="40" as="geometry" />
        </mxCell>
        <mxCell id="9NRjc9PGSiauFWdXZ-fw-11" value="Key: UserID" style="rounded=0;whiteSpace=wrap;html=1;fillColor=#d5e8d4;strokeColor=#82b366;" vertex="1" parent="9NRjc9PGSiauFWdXZ-fw-9">
          <mxGeometry x="120" y="30" width="90" height="40" as="geometry" />
        </mxCell>
        <mxCell id="9NRjc9PGSiauFWdXZ-fw-12" value="Value: { realName, role, HASH(passphrase), ... }" style="rounded=0;whiteSpace=wrap;html=1;fillColor=#f8cecc;strokeColor=#b85450;" vertex="1" parent="9NRjc9PGSiauFWdXZ-fw-9">
          <mxGeometry x="220" y="30" width="360" height="40" as="geometry" />
        </mxCell>
        <mxCell id="9NRjc9PGSiauFWdXZ-fw-13" value="B) Authentication Store (values encrypted with Domain Key)" style="text;html=1;align=left;verticalAlign=middle;resizable=0;points=[];autosize=1;strokeColor=none;fillColor=none;fontSize=14;" vertex="1" parent="9NRjc9PGSiauFWdXZ-fw-9">
          <mxGeometry width="390" height="30" as="geometry" />
        </mxCell>
        <mxCell id="9NRjc9PGSiauFWdXZ-fw-14" value="" style="group" vertex="1" connectable="0" parent="1">
          <mxGeometry x="50" y="170" width="580" height="70" as="geometry" />
        </mxCell>
        <mxCell id="9NRjc9PGSiauFWdXZ-fw-15" value="Store Version" style="rounded=0;whiteSpace=wrap;html=1;fillColor=#ffe6cc;strokeColor=#d79b00;" vertex="1" parent="9NRjc9PGSiauFWdXZ-fw-14">
          <mxGeometry x="20" y="30" width="90" height="40" as="geometry" />
        </mxCell>
        <mxCell id="9NRjc9PGSiauFWdXZ-fw-16" value="Key: KeyID" style="rounded=0;whiteSpace=wrap;html=1;fillColor=#d5e8d4;strokeColor=#82b366;" vertex="1" parent="9NRjc9PGSiauFWdXZ-fw-14">
          <mxGeometry x="120" y="30" width="90" height="40" as="geometry" />
        </mxCell>
        <mxCell id="9NRjc9PGSiauFWdXZ-fw-17" value="Value: { mechanisms, restrictions, priv, cert, operations, ... }" style="rounded=0;whiteSpace=wrap;html=1;fillColor=#f8cecc;strokeColor=#b85450;" vertex="1" parent="9NRjc9PGSiauFWdXZ-fw-14">
          <mxGeometry x="220" y="30" width="360" height="40" as="geometry" />
        </mxCell>
        <mxCell id="9NRjc9PGSiauFWdXZ-fw-18" value="C) Key Store (values encrypted with Domain Key)" style="text;html=1;align=left;verticalAlign=middle;resizable=0;points=[];autosize=1;strokeColor=none;fillColor=none;fontSize=14;" vertex="1" parent="9NRjc9PGSiauFWdXZ-fw-14">
          <mxGeometry width="330" height="30" as="geometry" />
        </mxCell>
        <mxCell id="9NRjc9PGSiauFWdXZ-fw-19" value="" style="group" vertex="1" connectable="0" parent="1">
          <mxGeometry x="50" y="240" width="580" height="70" as="geometry" />
        </mxCell>
        <mxCell id="9NRjc9PGSiauFWdXZ-fw-20" value="Store Version" style="rounded=0;whiteSpace=wrap;html=1;fillColor=#ffe6cc;strokeColor=#d79b00;" vertex="1" parent="9NRjc9PGSiauFWdXZ-fw-19">
          <mxGeometry x="20" y="30" width="90" height="40" as="geometry" />
        </mxCell>
        <mxCell id="9NRjc9PGSiauFWdXZ-fw-21" value="Key: Name" style="rounded=0;whiteSpace=wrap;html=1;fillColor=#d5e8d4;strokeColor=#82b366;" vertex="1" parent="9NRjc9PGSiauFWdXZ-fw-19">
          <mxGeometry x="120" y="30" width="90" height="40" as="geometry" />
        </mxCell>
        <mxCell id="9NRjc9PGSiauFWdXZ-fw-22" value="Value: data (type varies by name)" style="rounded=0;whiteSpace=wrap;html=1;fillColor=#f8cecc;strokeColor=#b85450;" vertex="1" parent="9NRjc9PGSiauFWdXZ-fw-19">
          <mxGeometry x="220" y="30" width="360" height="40" as="geometry" />
        </mxCell>
        <mxCell id="9NRjc9PGSiauFWdXZ-fw-23" value="D) Configuration Store" style="text;html=1;align=left;verticalAlign=middle;resizable=0;points=[];autosize=1;strokeColor=none;fillColor=none;fontSize=14;" vertex="1" parent="9NRjc9PGSiauFWdXZ-fw-19">
          <mxGeometry width="160" height="30" as="geometry" />
        </mxCell>
      </root>
    </mxGraphModel>
  </diagram>
</mxfile>
